<svg xmlns="http://www.w3.org/2000/svg" xmlns:xlink="http://www.w3.org/1999/xlink" width="150" zoomAndPan="magnify" viewBox="0 0 112.5 30.000001" height="40" preserveAspectRatio="xMidYMid meet" version="1.0"><defs><g/><clipPath id="8b540469d2"><path d="M 1.574219 0 L 30.734375 0 L 30.734375 29.03125 L 1.574219 29.03125 Z M 1.574219 0 " clip-rule="nonzero"/></clipPath></defs><g clip-path="url(#8b540469d2)"><path fill="#1a202c" d="M 12.507812 0 L 19.796875 0 C 20.515625 0 21.226562 0.0703125 21.933594 0.210938 C 22.636719 0.351562 23.320312 0.558594 23.984375 0.832031 C 24.648438 1.105469 25.277344 1.445312 25.875 1.84375 C 26.472656 2.242188 27.023438 2.695312 27.53125 3.203125 C 28.039062 3.710938 28.492188 4.261719 28.890625 4.859375 C 29.289062 5.457031 29.625 6.085938 29.902344 6.75 C 30.175781 7.414062 30.382812 8.097656 30.523438 8.800781 C 30.664062 9.507812 30.734375 10.21875 30.734375 10.933594 L 30.734375 18.226562 C 30.734375 18.945312 30.664062 19.65625 30.523438 20.359375 C 30.382812 21.0625 30.175781 21.746094 29.902344 22.410156 C 29.625 23.074219 29.289062 23.703125 28.890625 24.300781 C 28.492188 24.898438 28.039062 25.449219 27.53125 25.957031 C 27.023438 26.464844 26.472656 26.917969 25.875 27.316406 C 25.277344 27.71875 24.648438 28.054688 23.984375 28.328125 C 23.320312 28.605469 22.636719 28.8125 21.933594 28.949219 C 21.226562 29.089844 20.515625 29.160156 19.796875 29.160156 L 12.507812 29.160156 C 11.789062 29.160156 11.078125 29.089844 10.375 28.949219 C 9.671875 28.8125 8.988281 28.605469 8.324219 28.328125 C 7.660156 28.054688 7.03125 27.71875 6.433594 27.316406 C 5.835938 26.917969 5.285156 26.464844 4.777344 25.957031 C 4.269531 25.449219 3.816406 24.898438 3.414062 24.300781 C 3.015625 23.703125 2.679688 23.074219 2.40625 22.410156 C 2.128906 21.746094 1.921875 21.0625 1.78125 20.359375 C 1.644531 19.65625 1.574219 18.945312 1.574219 18.226562 L 1.574219 10.933594 C 1.574219 10.21875 1.644531 9.507812 1.78125 8.800781 C 1.921875 8.097656 2.128906 7.414062 2.40625 6.75 C 2.679688 6.085938 3.015625 5.457031 3.414062 4.859375 C 3.816406 4.261719 4.269531 3.710938 4.777344 3.203125 C 5.285156 2.695312 5.835938 2.242188 6.433594 1.84375 C 7.03125 1.445312 7.660156 1.105469 8.324219 0.832031 C 8.988281 0.558594 9.671875 0.351562 10.375 0.210938 C 11.078125 0.0703125 11.789062 0 12.507812 0 Z M 12.507812 0 " fill-opacity="1" fill-rule="nonzero"/></g><path fill="#ffffff" d="M 9.152344 13.726562 L 10.027344 14.242188 L 10.027344 18.335938 L 10.902344 18.847656 L 11.777344 19.363281 L 14.402344 20.898438 L 15.277344 21.414062 L 16.148438 21.925781 L 17.023438 21.414062 L 17.898438 20.898438 L 20.523438 19.363281 L 21.398438 18.847656 L 22.273438 18.335938 L 22.273438 14.242188 L 23.148438 13.726562 L 23.148438 15.582031 C 23.074219 15.625 23.027344 15.710938 23.027344 15.800781 C 23.027344 15.886719 23.066406 15.957031 23.128906 16.003906 L 23.097656 16.09375 L 22.921875 16.644531 L 23.625 16.644531 L 23.449219 16.09375 L 23.421875 16.003906 C 23.484375 15.957031 23.523438 15.898438 23.523438 15.800781 C 23.523438 15.703125 23.453125 15.59375 23.355469 15.558594 L 23.355469 13.605469 L 16.363281 9.507812 L 16.574219 9.382812 L 23.574219 13.480469 L 24.027344 13.214844 L 24.902344 12.703125 L 23.152344 11.679688 L 22.277344 11.164062 L 21.402344 10.65625 L 20.527344 10.140625 L 16.152344 7.582031 L 12.652344 9.628906 L 11.777344 10.144531 L 10.90625 10.65625 L 7.40625 12.703125 L 8.28125 13.214844 Z M 15.277344 12.191406 L 16.152344 11.679688 L 17.902344 12.703125 L 17.027344 13.21875 L 15.277344 14.242188 L 15.277344 15.265625 L 16.152344 15.777344 L 18.777344 14.242188 L 19.652344 13.726562 L 20.527344 13.214844 L 21.128906 12.863281 L 21.402344 12.703125 L 20.65625 12.269531 L 20.527344 12.191406 L 17.902344 10.65625 L 17.027344 10.140625 L 16.15625 9.628906 L 15.277344 10.144531 L 14.402344 10.65625 L 13.53125 11.167969 L 10.90625 12.703125 L 11.78125 13.21875 L 11.78125 17.3125 L 12.65625 17.824219 L 13.53125 18.339844 L 14.402344 18.851562 L 16.152344 19.875 L 18.777344 18.339844 L 19.652344 17.824219 L 20.527344 17.3125 L 20.527344 15.265625 L 17.902344 16.800781 L 17.027344 17.316406 L 16.152344 17.828125 L 15.277344 17.3125 L 14.402344 16.800781 L 13.53125 16.289062 L 13.53125 13.214844 L 14.402344 12.703125 Z M 15.277344 12.191406 " fill-opacity="1" fill-rule="evenodd"/><g fill="#1a202c" fill-opacity="1"><g transform="translate(34.794244, 21.506453)"><g><path d="M 6.25 0.140625 C 5.289062 0.140625 4.425781 -0.0234375 3.65625 -0.359375 C 2.894531 -0.691406 2.289062 -1.164062 1.84375 -1.78125 C 1.40625 -2.40625 1.1875 -3.128906 1.1875 -3.953125 L 3.703125 -3.953125 C 3.753906 -3.335938 3.992188 -2.828125 4.421875 -2.421875 C 4.859375 -2.023438 5.46875 -1.828125 6.25 -1.828125 C 7.0625 -1.828125 7.691406 -2.019531 8.140625 -2.40625 C 8.597656 -2.800781 8.828125 -3.3125 8.828125 -3.9375 C 8.828125 -4.414062 8.6875 -4.804688 8.40625 -5.109375 C 8.125 -5.410156 7.773438 -5.640625 7.359375 -5.796875 C 6.941406 -5.960938 6.363281 -6.144531 5.625 -6.34375 C 4.6875 -6.582031 3.925781 -6.828125 3.34375 -7.078125 C 2.757812 -7.335938 2.257812 -7.734375 1.84375 -8.265625 C 1.4375 -8.804688 1.234375 -9.519531 1.234375 -10.40625 C 1.234375 -11.226562 1.4375 -11.945312 1.84375 -12.5625 C 2.257812 -13.1875 2.835938 -13.660156 3.578125 -13.984375 C 4.316406 -14.316406 5.175781 -14.484375 6.15625 -14.484375 C 7.539062 -14.484375 8.675781 -14.132812 9.5625 -13.4375 C 10.445312 -12.75 10.9375 -11.800781 11.03125 -10.59375 L 8.4375 -10.59375 C 8.394531 -11.113281 8.144531 -11.554688 7.6875 -11.921875 C 7.238281 -12.296875 6.644531 -12.484375 5.90625 -12.484375 C 5.226562 -12.484375 4.675781 -12.3125 4.25 -11.96875 C 3.832031 -11.632812 3.625 -11.144531 3.625 -10.5 C 3.625 -10.0625 3.753906 -9.703125 4.015625 -9.421875 C 4.285156 -9.140625 4.625 -8.914062 5.03125 -8.75 C 5.445312 -8.582031 6.015625 -8.398438 6.734375 -8.203125 C 7.679688 -7.941406 8.453125 -7.679688 9.046875 -7.421875 C 9.640625 -7.160156 10.144531 -6.757812 10.5625 -6.21875 C 10.976562 -5.675781 11.1875 -4.953125 11.1875 -4.046875 C 11.1875 -3.328125 10.988281 -2.644531 10.59375 -2 C 10.207031 -1.351562 9.640625 -0.832031 8.890625 -0.4375 C 8.148438 -0.0507812 7.269531 0.140625 6.25 0.140625 Z M 6.25 0.140625 "/></g></g></g><g fill="#1a202c" fill-opacity="1"><g transform="translate(47.219963, 21.506453)"><g><path d="M 0.765625 -5.71875 C 0.765625 -6.851562 1 -7.859375 1.46875 -8.734375 C 1.945312 -9.617188 2.59375 -10.304688 3.40625 -10.796875 C 4.21875 -11.285156 5.117188 -11.53125 6.109375 -11.53125 C 7.003906 -11.53125 7.785156 -11.351562 8.453125 -11 C 9.117188 -10.644531 9.648438 -10.207031 10.046875 -9.6875 L 10.046875 -11.34375 L 12.40625 -11.34375 L 12.40625 0 L 10.046875 0 L 10.046875 -1.6875 C 9.648438 -1.15625 9.109375 -0.707031 8.421875 -0.34375 C 7.734375 0.0078125 6.953125 0.1875 6.078125 0.1875 C 5.097656 0.1875 4.203125 -0.0625 3.390625 -0.5625 C 2.585938 -1.0625 1.945312 -1.757812 1.46875 -2.65625 C 1 -3.5625 0.765625 -4.582031 0.765625 -5.71875 Z M 10.046875 -5.671875 C 10.046875 -6.460938 9.882812 -7.144531 9.5625 -7.71875 C 9.238281 -8.289062 8.816406 -8.726562 8.296875 -9.03125 C 7.773438 -9.332031 7.210938 -9.484375 6.609375 -9.484375 C 6.003906 -9.484375 5.441406 -9.335938 4.921875 -9.046875 C 4.398438 -8.753906 3.976562 -8.320312 3.65625 -7.75 C 3.332031 -7.175781 3.171875 -6.5 3.171875 -5.71875 C 3.171875 -4.9375 3.332031 -4.25 3.65625 -3.65625 C 3.976562 -3.070312 4.398438 -2.625 4.921875 -2.3125 C 5.453125 -2.007812 6.015625 -1.859375 6.609375 -1.859375 C 7.210938 -1.859375 7.773438 -2.003906 8.296875 -2.296875 C 8.816406 -2.597656 9.238281 -3.039062 9.5625 -3.625 C 9.882812 -4.207031 10.046875 -4.890625 10.046875 -5.671875 Z M 10.046875 -5.671875 "/></g></g></g><g fill="#1a202c" fill-opacity="1"><g transform="translate(61.168033, 21.506453)"><g><path d="M 15.265625 -11.53125 C 16.160156 -11.53125 16.957031 -11.34375 17.65625 -10.96875 C 18.363281 -10.59375 18.921875 -10.039062 19.328125 -9.3125 C 19.734375 -8.59375 19.9375 -7.71875 19.9375 -6.6875 L 19.9375 0 L 17.609375 0 L 17.609375 -6.34375 C 17.609375 -7.351562 17.351562 -8.128906 16.84375 -8.671875 C 16.34375 -9.210938 15.65625 -9.484375 14.78125 -9.484375 C 13.894531 -9.484375 13.195312 -9.210938 12.6875 -8.671875 C 12.175781 -8.128906 11.921875 -7.351562 11.921875 -6.34375 L 11.921875 0 L 9.59375 0 L 9.59375 -6.34375 C 9.59375 -7.351562 9.335938 -8.128906 8.828125 -8.671875 C 8.316406 -9.210938 7.625 -9.484375 6.75 -9.484375 C 5.875 -9.484375 5.175781 -9.210938 4.65625 -8.671875 C 4.144531 -8.128906 3.890625 -7.351562 3.890625 -6.34375 L 3.890625 0 L 1.546875 0 L 1.546875 -11.34375 L 3.890625 -11.34375 L 3.890625 -10.046875 C 4.273438 -10.503906 4.757812 -10.863281 5.34375 -11.125 C 5.9375 -11.394531 6.570312 -11.53125 7.25 -11.53125 C 8.15625 -11.53125 8.960938 -11.335938 9.671875 -10.953125 C 10.378906 -10.566406 10.925781 -10.007812 11.3125 -9.28125 C 11.65625 -9.96875 12.191406 -10.515625 12.921875 -10.921875 C 13.648438 -11.328125 14.429688 -11.53125 15.265625 -11.53125 Z M 15.265625 -11.53125 "/></g></g></g><g fill="#1a202c" fill-opacity="1"><g transform="translate(82.542729, 21.506453)"><g><path d="M 15.265625 -11.53125 C 16.160156 -11.53125 16.957031 -11.34375 17.65625 -10.96875 C 18.363281 -10.59375 18.921875 -10.039062 19.328125 -9.3125 C 19.734375 -8.59375 19.9375 -7.71875 19.9375 -6.6875 L 19.9375 0 L 17.609375 0 L 17.609375 -6.34375 C 17.609375 -7.351562 17.351562 -8.128906 16.84375 -8.671875 C 16.34375 -9.210938 15.65625 -9.484375 14.78125 -9.484375 C 13.894531 -9.484375 13.195312 -9.210938 12.6875 -8.671875 C 12.175781 -8.128906 11.921875 -7.351562 11.921875 -6.34375 L 11.921875 0 L 9.59375 0 L 9.59375 -6.34375 C 9.59375 -7.351562 9.335938 -8.128906 8.828125 -8.671875 C 8.316406 -9.210938 7.625 -9.484375 6.75 -9.484375 C 5.875 -9.484375 5.175781 -9.210938 4.65625 -8.671875 C 4.144531 -8.128906 3.890625 -7.351562 3.890625 -6.34375 L 3.890625 0 L 1.546875 0 L 1.546875 -11.34375 L 3.890625 -11.34375 L 3.890625 -10.046875 C 4.273438 -10.503906 4.757812 -10.863281 5.34375 -11.125 C 5.9375 -11.394531 6.570312 -11.53125 7.25 -11.53125 C 8.15625 -11.53125 8.960938 -11.335938 9.671875 -10.953125 C 10.378906 -10.566406 10.925781 -10.007812 11.3125 -9.28125 C 11.65625 -9.96875 12.191406 -10.515625 12.921875 -10.921875 C 13.648438 -11.328125 14.429688 -11.53125 15.265625 -11.53125 Z M 15.265625 -11.53125 "/></g></g></g><g fill="#1a202c" fill-opacity="1"><g transform="translate(103.917426, 21.506453)"><g><path d="M 2.734375 -12.84375 C 2.304688 -12.84375 1.945312 -12.984375 1.65625 -13.265625 C 1.375 -13.554688 1.234375 -13.914062 1.234375 -14.34375 C 1.234375 -14.769531 1.375 -15.125 1.65625 -15.40625 C 1.945312 -15.695312 2.304688 -15.84375 2.734375 -15.84375 C 3.148438 -15.84375 3.5 -15.695312 3.78125 -15.40625 C 4.070312 -15.125 4.21875 -14.769531 4.21875 -14.34375 C 4.21875 -13.914062 4.070312 -13.554688 3.78125 -13.265625 C 3.5 -12.984375 3.148438 -12.84375 2.734375 -12.84375 Z M 3.890625 -11.34375 L 3.890625 0 L 1.546875 0 L 1.546875 -11.34375 Z M 3.890625 -11.34375 "/></g></g></g></svg>